<svg width="272" height="45" viewBox="0 0 272 45" fill="none" xmlns="http://www.w3.org/2000/svg">
<path d="M0.5 5C0.5 2.23858 2.73858 0 5.5 0H266.5C269.261 0 271.5 2.23858 271.5 5V40C271.5 42.7614 269.261 45 266.5 45H5.5C2.73858 45 0.5 42.7614 0.5 40V5Z" fill="#FBE843"/>
<path d="M26.892 16.78C27.81 16.78 28.592 16.9273 29.238 17.222C29.884 17.5167 30.377 17.9417 30.717 18.497C31.057 19.0523 31.227 19.7267 31.227 20.52C31.227 21.3133 31.057 21.9877 30.717 22.543C30.377 23.0983 29.884 23.5233 29.238 23.818C28.592 24.1127 27.81 24.26 26.892 24.26H24.665V28H21.741V16.78H26.892ZM26.433 22.067C27.045 22.067 27.504 21.9423 27.81 21.693C28.1273 21.4323 28.286 21.0413 28.286 20.52C28.286 19.9987 28.1273 19.6133 27.81 19.364C27.504 19.1033 27.045 18.973 26.433 18.973H24.665V22.067H26.433ZM37.0405 16.78V28H34.1165V16.78H37.0405ZM49.9836 16.78V19.041H46.3286V28H43.4046V19.041H39.7326V16.78H49.9836ZM62.1552 24.787C61.9398 25.569 61.5942 26.215 61.1182 26.725C60.6422 27.2237 60.0755 27.592 59.4182 27.83C58.7608 28.0567 58.0355 28.17 57.2422 28.17C56.1088 28.17 55.1285 27.9433 54.3012 27.49C53.4738 27.0253 52.8392 26.3623 52.3972 25.501C51.9552 24.6397 51.7342 23.6027 51.7342 22.39C51.7342 21.1773 51.9552 20.1403 52.3972 19.279C52.8392 18.4177 53.4738 17.7603 54.3012 17.307C55.1285 16.8423 56.1032 16.61 57.2252 16.61C58.0072 16.61 58.7268 16.7233 59.3842 16.95C60.0415 17.1653 60.5968 17.4997 61.0502 17.953C61.5035 18.4063 61.8265 18.99 62.0192 19.704L59.4522 20.741C59.2935 20.0383 59.0328 19.5567 58.6702 19.296C58.3188 19.0353 57.8712 18.905 57.3272 18.905C56.7945 18.905 56.3298 19.0353 55.9332 19.296C55.5478 19.5567 55.2475 19.9477 55.0322 20.469C54.8282 20.979 54.7262 21.6193 54.7262 22.39C54.7262 23.1493 54.8225 23.7897 55.0152 24.311C55.2078 24.8323 55.4968 25.2233 55.8822 25.484C56.2788 25.7447 56.7662 25.875 57.3442 25.875C57.8882 25.875 58.3472 25.7277 58.7212 25.433C59.1065 25.127 59.3672 24.6623 59.5032 24.039L62.1552 24.787ZM74.9335 16.78V28H72.0095V16.78H74.9335ZM67.7255 16.78V28H64.8015V16.78H67.7255ZM73.5735 21.217V23.478H66.2295V21.217H73.5735ZM79.6117 25.076C80.031 25.076 80.3767 25.1723 80.6487 25.365C80.9207 25.5577 81.119 25.8127 81.2437 26.13C81.3797 26.436 81.4477 26.7817 81.4477 27.167C81.4477 27.677 81.3343 28.1643 81.1077 28.629C80.8923 29.105 80.6033 29.5187 80.2407 29.87C79.8893 30.2327 79.504 30.5047 79.0847 30.686L77.9117 29.819C78.229 29.6943 78.518 29.5357 78.7787 29.343C79.0507 29.1503 79.283 28.9407 79.4757 28.714C79.6797 28.4873 79.8327 28.255 79.9347 28.017L79.8497 27.966C79.793 28.0113 79.7193 28.0453 79.6287 28.068C79.538 28.0907 79.419 28.102 79.2717 28.102C79.0677 28.102 78.858 28.051 78.6427 27.949C78.4387 27.847 78.263 27.694 78.1157 27.49C77.9797 27.286 77.9117 27.0253 77.9117 26.708C77.9117 26.3453 77.991 26.045 78.1497 25.807C78.3083 25.569 78.518 25.3877 78.7787 25.263C79.0393 25.1383 79.317 25.076 79.6117 25.076ZM100.06 16.78L96.0821 28H92.6481L88.6531 16.78H91.7301L93.7871 23.563L94.3991 25.773L94.9941 23.597L97.0851 16.78H100.06ZM107.15 16.61C108.283 16.61 109.258 16.8423 110.074 17.307C110.901 17.7603 111.536 18.4177 111.978 19.279C112.42 20.1403 112.641 21.1773 112.641 22.39C112.641 23.6027 112.42 24.6397 111.978 25.501C111.536 26.3623 110.901 27.0253 110.074 27.49C109.258 27.9433 108.283 28.17 107.15 28.17C106.016 28.17 105.036 27.9433 104.209 27.49C103.381 27.0253 102.747 26.3623 102.305 25.501C101.863 24.6397 101.642 23.6027 101.642 22.39C101.642 21.1773 101.863 20.1403 102.305 19.279C102.747 18.4177 103.381 17.7603 104.209 17.307C105.036 16.8423 106.016 16.61 107.15 16.61ZM107.15 18.905C106.606 18.905 106.147 19.0353 105.773 19.296C105.399 19.5567 105.115 19.9477 104.923 20.469C104.73 20.979 104.634 21.6193 104.634 22.39C104.634 23.1493 104.73 23.7897 104.923 24.311C105.115 24.8323 105.399 25.2233 105.773 25.484C106.147 25.7447 106.606 25.875 107.15 25.875C107.694 25.875 108.147 25.7447 108.51 25.484C108.884 25.2233 109.167 24.8323 109.36 24.311C109.552 23.7897 109.649 23.1493 109.649 22.39C109.649 21.6193 109.552 20.979 109.36 20.469C109.167 19.9477 108.884 19.5567 108.51 19.296C108.147 19.0353 107.694 18.905 107.15 18.905ZM124.642 16.78V19.041H120.987V28H118.063V19.041H114.391V16.78H124.642ZM127.334 28V16.78H136.072V19.041H130.258V21.319H134.882V23.444H130.258V25.739H136.293V28H127.334ZM140.417 25.076C140.837 25.076 141.182 25.1723 141.454 25.365C141.726 25.5577 141.925 25.8127 142.049 26.13C142.185 26.436 142.253 26.7817 142.253 27.167C142.253 27.677 142.14 28.1643 141.913 28.629C141.698 29.105 141.409 29.5187 141.046 29.87C140.695 30.2327 140.31 30.5047 139.89 30.686L138.717 29.819C139.035 29.6943 139.324 29.5357 139.584 29.343C139.856 29.1503 140.089 28.9407 140.281 28.714C140.485 28.4873 140.638 28.255 140.74 28.017L140.655 27.966C140.599 28.0113 140.525 28.0453 140.434 28.068C140.344 28.0907 140.225 28.102 140.077 28.102C139.873 28.102 139.664 28.051 139.448 27.949C139.244 27.847 139.069 27.694 138.921 27.49C138.785 27.286 138.717 27.0253 138.717 26.708C138.717 26.3453 138.797 26.045 138.955 25.807C139.114 25.569 139.324 25.3877 139.584 25.263C139.845 25.1383 140.123 25.076 140.417 25.076ZM160.897 28H157.888L157.106 25.467H153.264L152.465 28H149.524L153.468 16.78H156.97L160.897 28ZM153.808 23.478H156.562L155.185 18.939L153.808 23.478ZM173.337 16.78V28H170.09L166.605 21.931L165.755 20.265H165.738L165.806 22.339V28H163.222V16.78H166.469L169.954 22.849L170.804 24.515H170.821L170.753 22.441V16.78H173.337ZM181.603 16.78C183.359 16.78 184.702 17.2673 185.632 18.242C186.572 19.2167 187.043 20.5993 187.043 22.39C187.043 24.1807 186.572 25.5633 185.632 26.538C184.702 27.5127 183.359 28 181.603 28H176.843V16.78H181.603ZM181.314 25.79C182.266 25.79 182.957 25.5067 183.388 24.94C183.83 24.362 184.051 23.512 184.051 22.39C184.051 21.268 183.83 20.4237 183.388 19.857C182.957 19.279 182.266 18.99 181.314 18.99H179.767V25.79H181.314ZM200.59 28.17C199.593 28.17 198.703 27.949 197.921 27.507C197.15 27.065 196.55 26.4133 196.119 25.552C195.688 24.6907 195.473 23.6423 195.473 22.407C195.473 21.1943 195.7 20.1573 196.153 19.296C196.606 18.4347 197.252 17.7717 198.091 17.307C198.941 16.8423 199.938 16.61 201.083 16.61C202.352 16.61 203.378 16.8423 204.16 17.307C204.942 17.7603 205.548 18.4857 205.979 19.483L203.276 20.554C203.129 19.976 202.868 19.5567 202.494 19.296C202.12 19.0353 201.655 18.905 201.1 18.905C200.545 18.905 200.069 19.041 199.672 19.313C199.275 19.5737 198.975 19.9647 198.771 20.486C198.567 20.996 198.465 21.6307 198.465 22.39C198.465 23.1833 198.567 23.8463 198.771 24.379C198.986 24.9117 199.298 25.3083 199.706 25.569C200.125 25.8183 200.641 25.943 201.253 25.943C201.582 25.943 201.882 25.9033 202.154 25.824C202.426 25.7447 202.664 25.6313 202.868 25.484C203.072 25.3253 203.231 25.1327 203.344 24.906C203.457 24.668 203.514 24.3903 203.514 24.073V23.903H200.947V21.948H205.996V28H204.007L203.786 25.365L204.262 25.773C204.024 26.5437 203.593 27.1387 202.97 27.558C202.358 27.966 201.565 28.17 200.59 28.17ZM214.609 16.78C215.947 16.78 216.984 17.0973 217.72 17.732C218.468 18.3553 218.842 19.1883 218.842 20.231C218.842 21.3757 218.474 22.2483 217.737 22.849C217.001 23.4497 215.964 23.75 214.626 23.75L214.354 23.903H212.127V28H209.254V16.78H214.609ZM214.201 21.829C214.768 21.829 215.193 21.7157 215.476 21.489C215.76 21.2623 215.901 20.8997 215.901 20.401C215.901 19.9137 215.76 19.5567 215.476 19.33C215.193 19.1033 214.768 18.99 214.201 18.99H212.127V21.829H214.201ZM215.918 22.441L219.505 28H216.275L213.402 23.087L215.918 22.441ZM226.911 16.61C228.044 16.61 229.019 16.8423 229.835 17.307C230.662 17.7603 231.297 18.4177 231.739 19.279C232.181 20.1403 232.402 21.1773 232.402 22.39C232.402 23.6027 232.181 24.6397 231.739 25.501C231.297 26.3623 230.662 27.0253 229.835 27.49C229.019 27.9433 228.044 28.17 226.911 28.17C225.777 28.17 224.797 27.9433 223.97 27.49C223.142 27.0253 222.508 26.3623 222.066 25.501C221.624 24.6397 221.403 23.6027 221.403 22.39C221.403 21.1773 221.624 20.1403 222.066 19.279C222.508 18.4177 223.142 17.7603 223.97 17.307C224.797 16.8423 225.777 16.61 226.911 16.61ZM226.911 18.905C226.367 18.905 225.908 19.0353 225.534 19.296C225.16 19.5567 224.876 19.9477 224.684 20.469C224.491 20.979 224.395 21.6193 224.395 22.39C224.395 23.1493 224.491 23.7897 224.684 24.311C224.876 24.8323 225.16 25.2233 225.534 25.484C225.908 25.7447 226.367 25.875 226.911 25.875C227.455 25.875 227.908 25.7447 228.271 25.484C228.645 25.2233 228.928 24.8323 229.121 24.311C229.313 23.7897 229.41 23.1493 229.41 22.39C229.41 21.6193 229.313 20.979 229.121 20.469C228.928 19.9477 228.645 19.5567 228.271 19.296C227.908 19.0353 227.455 18.905 226.911 18.905ZM237.343 28L234.113 16.78H237.224L239.128 25.637L241.134 16.78H243.786L245.843 25.62L247.713 16.78H250.722L247.475 28H244.296L242.97 22.56L242.46 19.823H242.426L241.933 22.56L240.624 28H237.343Z" fill="black"/>
<rect x="120.445" y="34.25" width="31.11" height="0.5" fill="url(#paint0_linear_62001_4721)" stroke="#F7F7F7" stroke-width="0.5"/>
<defs>
<linearGradient id="paint0_linear_62001_4721" x1="120.195" y1="34.5" x2="151.805" y2="34.5" gradientUnits="userSpaceOnUse">
<stop stop-color="#F7D930" stop-opacity="0"/>
<stop offset="0.5" stop-color="#FFE553"/>
<stop offset="1" stop-color="#FFDE21" stop-opacity="0"/>
</linearGradient>
</defs>
</svg>
